<svg width="268" height="88" viewBox="0 0 268 88" fill="none" xmlns="http://www.w3.org/2000/svg">
<path d="M14.7826 68.6372C11.0752 67.6026 9.87806 62.9427 12.6277 60.2493L62.1213 11.7686C64.871 9.07524 69.5052 10.3685 70.4629 14.0964L87.7016 81.1995C88.6593 84.9275 85.2222 88.2942 81.5149 87.2596L14.7826 68.6372Z" fill="#A8A2FF"/>
<path d="M52.5319 1.42176C55.3404 -1.21024 59.9449 0.184999 60.82 3.93319L76.5727 71.4006C77.4479 75.1488 73.9373 78.4388 70.2537 77.3226L3.94886 57.2311C0.265261 56.1149 -0.82868 51.4297 1.97977 48.7977L52.5319 1.42176Z" fill="#6661FE"/>
<path d="M150.268 33.556L138.828 62H126.66L115.22 33.556H127.284L133.004 48.792L139.14 33.556H150.268Z" fill="#0E0E37"/>
<path d="M163.789 33.036C168.781 33.036 172.595 34.1627 175.229 36.416C177.864 38.6347 179.181 42.0667 179.181 46.712V62H168.261V58.256C166.909 61.0987 164.223 62.52 160.201 62.52C157.948 62.52 156.024 62.1387 154.429 61.376C152.869 60.5787 151.673 59.5213 150.841 58.204C150.044 56.852 149.645 55.344 149.645 53.68C149.645 50.872 150.72 48.74 152.869 47.284C155.019 45.828 158.277 45.1 162.645 45.1H167.377C166.996 42.8813 165.211 41.772 162.021 41.772C160.739 41.772 159.439 41.98 158.121 42.396C156.804 42.7773 155.677 43.3147 154.741 44.008L150.997 36.26C152.627 35.2547 154.585 34.4747 156.873 33.92C159.196 33.3307 161.501 33.036 163.789 33.036ZM163.737 55.448C164.569 55.448 165.315 55.2227 165.973 54.772C166.632 54.3213 167.117 53.6453 167.429 52.744V50.768H164.517C162.125 50.768 160.929 51.5653 160.929 53.16C160.929 53.8187 161.172 54.3733 161.657 54.824C162.177 55.24 162.871 55.448 163.737 55.448Z" fill="#0E0E37"/>
<path d="M195.44 36.624C197.52 34.232 200.588 33.036 204.644 33.036V43.436C203.708 43.2973 202.842 43.228 202.044 43.228C198.023 43.228 196.012 45.2733 196.012 49.364V62H184.26V33.556H195.44V36.624Z" fill="#0E0E37"/>
<path d="M219.103 62.52C216.676 62.52 214.284 62.26 211.927 61.74C209.57 61.22 207.663 60.544 206.207 59.712L209.431 51.964C210.748 52.7613 212.308 53.3853 214.111 53.836C215.914 54.2867 217.664 54.512 219.363 54.512C220.715 54.512 221.651 54.408 222.171 54.2C222.726 53.9573 223.003 53.6107 223.003 53.16C223.003 52.7093 222.656 52.3973 221.963 52.224C221.304 52.0507 220.212 51.8773 218.687 51.704C216.364 51.4267 214.388 51.08 212.759 50.664C211.13 50.2133 209.691 49.364 208.443 48.116C207.23 46.868 206.623 45.0827 206.623 42.76C206.623 40.9227 207.178 39.276 208.287 37.82C209.396 36.364 211.043 35.2027 213.227 34.336C215.446 33.4693 218.098 33.036 221.183 33.036C223.332 33.036 225.43 33.244 227.475 33.66C229.555 34.0413 231.323 34.6133 232.779 35.376L229.555 43.124C227.059 41.7373 224.32 41.044 221.339 41.044C218.774 41.044 217.491 41.4947 217.491 42.396C217.491 42.8467 217.838 43.176 218.531 43.384C219.224 43.5573 220.316 43.7307 221.807 43.904C224.13 44.1813 226.088 44.5453 227.683 44.996C229.312 45.4467 230.734 46.296 231.947 47.544C233.195 48.792 233.819 50.5773 233.819 52.9C233.819 54.668 233.264 56.28 232.155 57.736C231.046 59.192 229.382 60.3533 227.163 61.22C224.944 62.0867 222.258 62.52 219.103 62.52Z" fill="#0E0E37"/>
<path d="M267.641 47.752C267.641 47.9253 267.589 48.844 267.485 50.508H247.725C248.141 51.5827 248.835 52.4147 249.805 53.004C250.776 53.5587 251.989 53.836 253.445 53.836C254.693 53.836 255.733 53.68 256.565 53.368C257.432 53.056 258.368 52.5187 259.373 51.756L265.509 57.944C262.736 60.9947 258.593 62.52 253.081 62.52C249.649 62.52 246.633 61.896 244.033 60.648C241.433 59.3653 239.423 57.5973 238.001 55.344C236.58 53.0907 235.869 50.56 235.869 47.752C235.869 44.9093 236.563 42.3787 237.949 40.16C239.371 37.9067 241.295 36.156 243.721 34.908C246.183 33.66 248.939 33.036 251.989 33.036C254.867 33.036 257.484 33.608 259.841 34.752C262.233 35.896 264.123 37.5773 265.509 39.796C266.931 42.0147 267.641 44.6667 267.641 47.752ZM252.093 41.044C250.88 41.044 249.875 41.3733 249.077 42.032C248.28 42.6907 247.76 43.6267 247.517 44.84H256.669C256.427 43.6613 255.907 42.7427 255.109 42.084C254.312 41.3907 253.307 41.044 252.093 41.044Z" fill="#0E0E37"/>
</svg>
